<mxfile host="app.diagrams.net" agent="Mozilla/5.0 (Windows NT 10.0; Win64; x64) AppleWebKit/537.36 (KHTML, like Gecko) Chrome/139.0.0.0 Safari/537.36 Edg/139.0.0.0" version="28.0.9" pages="2">
  <diagram name="Page-1" id="v0jHeo1C9ad1ZyAYmYqa">
    <mxGraphModel>
      <root>
        <mxCell id="0" />
        <mxCell id="1" parent="0" />
      </root>
    </mxGraphModel>
  </diagram>
  <diagram id="3Sj_nHVMIvnh1K96RJKF" name="Page-2">
    <mxGraphModel dx="1863" dy="571" grid="1" gridSize="10" guides="1" tooltips="1" connect="1" arrows="1" fold="1" page="1" pageScale="1" pageWidth="827" pageHeight="1169" math="0" shadow="0">
      <root>
        <mxCell id="0" />
        <mxCell id="1" parent="0" />
        <mxCell id="90JbBEqUm4aNUmj8s5AG-13" style="edgeStyle=orthogonalEdgeStyle;rounded=0;orthogonalLoop=1;jettySize=auto;html=1;endArrow=block;endFill=0;" edge="1" parent="1" source="90JbBEqUm4aNUmj8s5AG-1" target="90JbBEqUm4aNUmj8s5AG-12">
          <mxGeometry relative="1" as="geometry" />
        </mxCell>
        <mxCell id="90JbBEqUm4aNUmj8s5AG-1" value="TextBoxInfoViewModel" style="swimlane;fontStyle=1;align=center;verticalAlign=middle;childLayout=stackLayout;horizontal=1;startSize=29;horizontalStack=0;resizeParent=1;resizeParentMax=0;resizeLast=0;collapsible=0;marginBottom=0;html=1;whiteSpace=wrap;" vertex="1" parent="1">
          <mxGeometry x="70" y="190" width="140" height="54" as="geometry" />
        </mxCell>
        <mxCell id="90JbBEqUm4aNUmj8s5AG-4" value="TextBoxInfoView" style="swimlane;fontStyle=1;align=center;verticalAlign=middle;childLayout=stackLayout;horizontal=1;startSize=29;horizontalStack=0;resizeParent=1;resizeParentMax=0;resizeLast=0;collapsible=0;marginBottom=0;html=1;whiteSpace=wrap;" vertex="1" parent="1">
          <mxGeometry x="-90" y="190" width="140" height="54" as="geometry" />
        </mxCell>
        <mxCell id="90JbBEqUm4aNUmj8s5AG-7" value="ContentInfo" style="swimlane;fontStyle=1;align=center;verticalAlign=middle;childLayout=stackLayout;horizontal=1;startSize=29;horizontalStack=0;resizeParent=1;resizeParentMax=0;resizeLast=0;collapsible=0;marginBottom=0;html=1;whiteSpace=wrap;" vertex="1" parent="1">
          <mxGeometry x="344" y="2" width="140" height="79" as="geometry" />
        </mxCell>
        <mxCell id="90JbBEqUm4aNUmj8s5AG-9" value="Lablel" style="text;html=1;strokeColor=none;fillColor=none;align=left;verticalAlign=middle;spacingLeft=4;spacingRight=4;overflow=hidden;rotatable=0;points=[[0,0.5],[1,0.5]];portConstraint=eastwest;whiteSpace=wrap;" vertex="1" parent="90JbBEqUm4aNUmj8s5AG-7">
          <mxGeometry y="29" width="140" height="25" as="geometry" />
        </mxCell>
        <mxCell id="90JbBEqUm4aNUmj8s5AG-10" value="ContentInfoViewModel" style="text;html=1;strokeColor=none;fillColor=none;align=left;verticalAlign=middle;spacingLeft=4;spacingRight=4;overflow=hidden;rotatable=0;points=[[0,0.5],[1,0.5]];portConstraint=eastwest;whiteSpace=wrap;" vertex="1" parent="90JbBEqUm4aNUmj8s5AG-7">
          <mxGeometry y="54" width="140" height="25" as="geometry" />
        </mxCell>
        <mxCell id="90JbBEqUm4aNUmj8s5AG-12" value="&lt;span style=&quot;text-align: left;&quot;&gt;ContentInfoViewModel&lt;/span&gt;" style="html=1;whiteSpace=wrap;" vertex="1" parent="1">
          <mxGeometry x="160" y="100" width="170" height="50" as="geometry" />
        </mxCell>
        <mxCell id="90JbBEqUm4aNUmj8s5AG-17" style="edgeStyle=orthogonalEdgeStyle;rounded=0;orthogonalLoop=1;jettySize=auto;html=1;endArrow=block;endFill=0;" edge="1" parent="1" source="90JbBEqUm4aNUmj8s5AG-14" target="90JbBEqUm4aNUmj8s5AG-12">
          <mxGeometry relative="1" as="geometry" />
        </mxCell>
        <mxCell id="90JbBEqUm4aNUmj8s5AG-14" value="ComboBoxInfoViewModel" style="swimlane;fontStyle=1;align=center;verticalAlign=middle;childLayout=stackLayout;horizontal=1;startSize=29;horizontalStack=0;resizeParent=1;resizeParentMax=0;resizeLast=0;collapsible=0;marginBottom=0;html=1;whiteSpace=wrap;" vertex="1" parent="1">
          <mxGeometry x="240" y="190" width="190" height="81" as="geometry" />
        </mxCell>
        <mxCell id="90JbBEqUm4aNUmj8s5AG-23" value="Items" style="text;strokeColor=none;fillColor=none;align=left;verticalAlign=top;spacingLeft=4;spacingRight=4;overflow=hidden;rotatable=0;points=[[0,0.5],[1,0.5]];portConstraint=eastwest;whiteSpace=wrap;html=1;" vertex="1" parent="90JbBEqUm4aNUmj8s5AG-14">
          <mxGeometry y="29" width="190" height="26" as="geometry" />
        </mxCell>
        <mxCell id="90JbBEqUm4aNUmj8s5AG-22" value="SelecteItem" style="text;strokeColor=none;fillColor=none;align=left;verticalAlign=top;spacingLeft=4;spacingRight=4;overflow=hidden;rotatable=0;points=[[0,0.5],[1,0.5]];portConstraint=eastwest;whiteSpace=wrap;html=1;" vertex="1" parent="90JbBEqUm4aNUmj8s5AG-14">
          <mxGeometry y="55" width="190" height="26" as="geometry" />
        </mxCell>
        <mxCell id="90JbBEqUm4aNUmj8s5AG-19" value="ComboBoxInfoView" style="swimlane;fontStyle=1;align=center;verticalAlign=middle;childLayout=stackLayout;horizontal=1;startSize=29;horizontalStack=0;resizeParent=1;resizeParentMax=0;resizeLast=0;collapsible=0;marginBottom=0;html=1;whiteSpace=wrap;" vertex="1" parent="1">
          <mxGeometry x="460" y="190" width="140" height="54" as="geometry" />
        </mxCell>
      </root>
    </mxGraphModel>
  </diagram>
</mxfile>
